<?xml version="1.0" encoding="iso-8859-1"?>
<!-- Uploaded to: SVG Repo, www.svgrepo.com, Generator: SVG Repo Mixer Tools -->
<svg height="800px" width="800px" version="1.1" id="Layer_1" xmlns="http://www.w3.org/2000/svg" xmlns:xlink="http://www.w3.org/1999/xlink" 
	 viewBox="0 0 511.999 511.999" xml:space="preserve">
<polygon style="fill:#90BC42;" points="433.724,466.251 433.724,502.216 84.143,502.216 84.143,407.111 84.143,45.59 113.126,45.59 
	113.126,64.355 113.126,407.111 113.126,466.251 "/>
<polygon style="fill:#F7B239;" points="455.882,64.355 455.882,466.251 433.724,466.251 113.126,466.251 113.126,407.111 
	113.126,64.355 "/>
<path style="fill:#E09B2D;" d="M113.126,38.295v7.295H84.143v361.522h-28.03V38.295c0-7.882,3.184-15.007,8.352-20.161
	c5.155-5.155,12.293-8.352,20.161-8.352C100.363,9.782,113.126,22.544,113.126,38.295z"/>
<path style="fill:#F7B239;" d="M113.126,38.295c0-15.751-12.762-28.513-28.5-28.513h342.757c15.738,0,28.5,12.762,28.5,28.513v26.06
	H113.126V45.59V38.295z"/>
<g>
	<path style="fill:#FFFFFF;" d="M423.259,407.304c-5.405,0-9.787-4.382-9.787-9.787V133.278c0-5.405,4.382-9.787,9.787-9.787
		s9.787,4.382,9.787,9.787v264.239C433.046,402.922,428.664,407.304,423.259,407.304z"/>
	<circle style="fill:#FFFFFF;" cx="423.272" cy="96.096" r="9.787"/>
	<circle style="fill:#FFFFFF;" cx="423.259" cy="35.416" r="9.787"/>
</g>
<g>
	<path style="fill:#333333;" d="M427.377,0H84.622C63.506,0,46.328,17.178,46.328,38.294v368.818c0,5.405,4.382,9.787,9.787,9.787
		h18.237v85.313c0,5.405,4.382,9.787,9.787,9.787h349.58c5.405,0,9.787-4.382,9.787-9.787v-26.168h12.377
		c5.405,0,9.787-4.382,9.787-9.787V38.294C465.671,17.178,448.492,0,427.377,0z M427.377,19.574
		c10.322,0,18.719,8.397,18.719,18.719v16.274h-323.18V38.294c0-6.795-1.779-13.183-4.895-18.719
		C118.022,19.574,427.377,19.574,427.377,19.574z M74.352,45.595v351.729h-8.45V38.294c0-10.322,8.397-18.719,18.719-18.719
		c9.478,0,17.314,7.086,18.535,16.234H84.139C78.734,35.808,74.352,40.19,74.352,45.595z M423.932,492.426H93.926V55.382h9.416
		v410.875c0,5.405,4.382,9.787,9.787,9.787h310.801v16.382H423.932z M122.918,456.471V74.142h323.18v382.329H122.918z"/>
	<path style="fill:#333333;" d="M376.134,141.524H192.88c-5.405,0-9.787,4.382-9.787,9.787c0,5.405,4.382,9.787,9.787,9.787h183.255
		c5.405,0,9.787-4.382,9.787-9.787C385.922,145.906,381.54,141.524,376.134,141.524z"/>
	<path style="fill:#333333;" d="M376.134,186.884H192.88c-5.405,0-9.787,4.382-9.787,9.787s4.382,9.787,9.787,9.787h183.255
		c5.405,0,9.787-4.382,9.787-9.787S381.54,186.884,376.134,186.884z"/>
	<path style="fill:#333333;" d="M376.134,277.603H192.88c-5.405,0-9.787,4.382-9.787,9.787c0,5.405,4.382,9.787,9.787,9.787h183.255
		c5.405,0,9.787-4.382,9.787-9.787C385.922,281.985,381.54,277.603,376.134,277.603z"/>
	<path style="fill:#333333;" d="M376.134,322.963H192.88c-5.405,0-9.787,4.382-9.787,9.787c0,5.405,4.382,9.787,9.787,9.787h183.255
		c5.405,0,9.787-4.382,9.787-9.787C385.922,327.345,381.54,322.963,376.134,322.963z"/>
	<path style="fill:#333333;" d="M376.134,368.323H192.88c-5.405,0-9.787,4.382-9.787,9.787c0,5.405,4.382,9.787,9.787,9.787h183.255
		c5.405,0,9.787-4.382,9.787-9.787C385.922,372.705,381.54,368.323,376.134,368.323z"/>
	<path style="fill:#333333;" d="M376.134,232.243H192.88c-5.405,0-9.787,4.382-9.787,9.787s4.382,9.787,9.787,9.787h183.255
		c5.405,0,9.787-4.382,9.787-9.787S381.54,232.243,376.134,232.243z"/>
</g>
</svg>