<?xml version="1.0" encoding="utf-8"?>
<!-- Generator: Adobe Illustrator 24.3.0, SVG Export Plug-In . SVG Version: 6.00 Build 0)  -->
<svg version="1.1" id="Layer_1" xmlns="http://www.w3.org/2000/svg" xmlns:xlink="http://www.w3.org/1999/xlink" x="0px" y="0px"
	 viewBox="0 0 300 300" enable-background="new 0 0 300 300" xml:space="preserve">
<g>
	<g>
		<g>
			<path fill="#FFDA88" d="M117.719,117.719l-8.937-28.03c2.286-5.443,3.557-11.422,3.557-17.701
				c0-25.256-20.475-45.731-45.731-45.731c-25.256,0-45.731,20.475-45.731,45.731c0,25.256,20.475,45.731,45.731,45.731
				c6.693,0,13.025-1.471,18.757-4.053L117.719,117.719z"/>
		</g>
		<g>
			<path fill="#FFE2A9" d="M37.018,71.988c0-22.497,16.261-41.16,37.661-44.975c-2.622-0.473-5.312-0.756-8.07-0.756
				c-25.256,0-45.731,20.475-45.731,45.731c0,25.256,20.475,45.731,45.731,45.731c2.732,0,5.38-0.305,7.975-0.767
				C53.232,113.096,37.018,94.455,37.018,71.988z"/>
		</g>
		<g>
			<g>
				<path fill="#FE6F80" d="M69.298,90.819c-2.974,0-5.38-2.406-5.38-5.38v-5.38c0-2.974,2.406-5.38,5.38-5.38
					c5.937,0,10.76-4.829,10.76-10.76c0-5.932-4.823-10.76-10.76-10.76c-5.937,0-10.76,4.829-10.76,10.76
					c0,2.974-2.406,5.38-5.38,5.38c-2.974,0-5.38-2.407-5.38-5.38c0-11.869,9.657-21.52,21.52-21.52
					c11.864,0,21.52,9.651,21.52,21.52c0,10.009-6.872,18.447-16.14,20.837v0.683C74.679,88.412,72.272,90.819,69.298,90.819z"/>
			</g>
		</g>
		<g>
			<circle fill="#FE6F80" cx="69.298" cy="101.579" r="5.38"/>
		</g>
		<g>
			<path fill="#FE6F80" d="M176.9,176.901c-53.486,0-96.842,43.356-96.842,96.842h199.064
				C279.123,220.257,230.386,176.901,176.9,176.901z"/>
		</g>
		<g>
			<path fill="#FFA1AA" d="M184.997,177.305c-2.685-0.215-5.38-0.405-8.096-0.405c-53.486,0-96.842,43.356-96.842,96.842h16.14
				C96.199,222.973,135.283,181.403,184.997,177.305z"/>
		</g>
		<g>
			
				<ellipse transform="matrix(0.1734 -0.9849 0.9849 0.1734 24.565 280.847)" fill="#E5E5E4" cx="179.591" cy="125.79" rx="45.731" ry="45.731"/>
		</g>
		<g>
			<path fill="#EFEFEF" d="M150,125.789c0-22.497,16.261-41.16,37.661-44.977c-2.622-0.467-5.312-0.754-8.07-0.754
				c-25.256,0-45.731,20.475-45.731,45.731s20.475,45.731,45.731,45.731c2.758,0,5.448-0.284,8.07-0.756
				C166.261,166.949,150,148.287,150,125.789z"/>
		</g>
		<g>
			<path fill="#E5E5E4" d="M145.902,182.06l30.999,27.121l30.815-27.394c-9.867-3.131-20.238-4.886-30.815-4.886
				C166.046,176.901,155.648,178.766,145.902,182.06z"/>
		</g>
		<g>
			<path fill="#EFEFEF" d="M163.891,177.873c-1.392,0.189-2.779,0.388-4.151,0.635c-1.817,0.336-3.625,0.71-5.406,1.145
				c-0.736,0.173-1.461,0.368-2.191,0.562c-2.101,0.562-4.193,1.151-6.241,1.844l5.149,4.508
				c10.424-5.018,21.862-8.265,33.946-9.263c-2.685-0.215-5.38-0.405-8.096-0.405c-3,0-5.953,0.184-8.885,0.447
				C166.629,177.478,165.263,177.683,163.891,177.873z"/>
		</g>
		<g>
			<path fill="#9AD7D2" d="M207.773,181.808L176.9,209.181l21.521,10.76l23.259-32.564
				C217.188,185.212,212.549,183.331,207.773,181.808z"/>
		</g>
		<g>
			<path fill="#9AD7D2" d="M155.38,219.941l21.52-10.76l-30.999-27.121c-4.666,1.576-9.174,3.483-13.492,5.727L155.38,219.941z"/>
		</g>
		<g>
			<path fill="#ABEDE6" d="M145.902,182.06c-4.666,1.576-9.174,3.483-13.492,5.727l4.928,6.899
				c4.334-3.058,8.895-5.796,13.713-8.118L145.902,182.06z"/>
		</g>
		<g>
			<polygon fill="#FFDA88" points="187.661,236.082 193.682,217.572 176.9,209.181 160.088,217.588 166.14,236.082 			"/>
		</g>
		<g>
			<rect x="166.14" y="236.082" fill="#FFDA88" width="21.521" height="37.661"/>
		</g>
		<g>
			<rect x="166.14" y="236.082" fill="#FFE2A9" width="10.76" height="37.661"/>
		</g>
		<g>
			<polygon fill="#FFE2A9" points="182.281,211.871 176.9,209.181 160.088,217.588 166.14,236.082 176.9,236.082 170.848,217.588 
							"/>
		</g>
	</g>
	<g>
		<g>
			<g>
				<path fill="#242424" d="M69.298,90.819c-2.974,0-5.38-2.406-5.38-5.38v-5.38c0-2.974,2.406-5.38,5.38-5.38
					c5.937,0,10.76-4.829,10.76-10.76c0-5.932-4.823-10.76-10.76-10.76c-5.937,0-10.76,4.829-10.76,10.76
					c0,2.974-2.406,5.38-5.38,5.38c-2.974,0-5.38-2.407-5.38-5.38c0-11.869,9.657-21.52,21.52-21.52
					c11.864,0,21.52,9.651,21.52,21.52c0,10.009-6.872,18.447-16.14,20.837v0.683C74.679,88.412,72.272,90.819,69.298,90.819z"/>
			</g>
		</g>
		<g>
			<circle fill="#242424" cx="69.298" cy="101.579" r="5.38"/>
		</g>
		<g>
			<path fill="#161616" d="M117.719,123.099c-0.221,0-0.446-0.013-0.667-0.042l-30.899-3.87c-6.247,2.595-12.814,3.912-19.545,3.912
				c-28.182,0-51.111-22.928-51.111-51.111s22.929-51.111,51.111-51.111s51.111,22.928,51.111,51.111
				c0,6.163-1.082,12.174-3.226,17.898l8.354,26.199c0.557,1.75,0.184,3.662-0.988,5.073
				C120.83,122.395,119.306,123.099,117.719,123.099z M66.608,31.638c-22.251,0-40.351,18.1-40.351,40.351
				c0,22.251,18.1,40.351,40.351,40.351c5.711,0,11.275-1.203,16.545-3.578c0.904-0.405,1.902-0.562,2.879-0.433l24.006,3.008
				l-6.384-20.013c-0.389-1.219-0.326-2.538,0.168-3.717c2.081-4.957,3.137-10.211,3.137-15.618
				C106.959,49.738,88.859,31.638,66.608,31.638z"/>
		</g>
		<g>
			<path fill="#161616" d="M176.9,214.561c-1.266,0-2.527-0.444-3.541-1.332l-30.999-27.121c-1.45-1.266-2.112-3.21-1.734-5.099
				c0.373-1.886,1.729-3.431,3.552-4.046c21.137-7.145,43.445-7.203,65.166-0.302c1.844,0.586,3.231,2.117,3.636,4.009
				c0.399,1.891-0.242,3.854-1.692,5.141l-30.815,27.392C179.454,214.107,178.177,214.561,176.9,214.561z M156.904,184.54
				l19.971,17.467l19.792-17.596C183.342,181.548,169.986,181.571,156.904,184.54z"/>
		</g>
		<g>
			<path fill="#161616" d="M198.416,225.322c-0.809,0-1.634-0.184-2.401-0.567l-21.52-10.76c-1.597-0.799-2.695-2.341-2.926-4.111
				c-0.236-1.771,0.426-3.541,1.765-4.726l30.872-27.371c1.419-1.256,3.394-1.679,5.202-1.101c4.855,1.545,9.772,3.512,14.611,5.848
				c1.429,0.691,2.48,1.976,2.874,3.512c0.394,1.537,0.089,3.171-0.835,4.461l-23.26,32.562
				C201.757,224.523,200.107,225.322,198.416,225.322z M186.426,207.928l10.287,5.146l16.76-23.464
				c-1.487-0.612-2.979-1.18-4.461-1.708L186.426,207.928z"/>
		</g>
		<g>
			<path fill="#161616" d="M155.385,225.322c-1.692,0-3.342-0.799-4.382-2.254l-22.97-32.157c-0.909-1.269-1.219-2.869-0.856-4.384
				c0.368-1.516,1.371-2.798,2.753-3.518c4.518-2.343,9.31-4.377,14.249-6.045c1.807-0.62,3.825-0.218,5.265,1.048l30.999,27.121
				c1.35,1.18,2.023,2.955,1.797,4.734c-0.231,1.776-1.329,3.326-2.932,4.127l-21.521,10.76
				C157.019,225.138,156.195,225.322,155.385,225.322z M140.522,189.886l16.566,23.189l10.24-5.12l-22.592-19.768
				C143.312,188.719,141.909,189.287,140.522,189.886z"/>
		</g>
		<g>
			<path fill="#161616" d="M187.661,241.462h-21.52c-2.327,0-4.387-1.495-5.112-3.707l-6.053-18.494
				c-0.83-2.535,0.321-5.293,2.706-6.486l16.813-8.406c1.513-0.757,3.299-0.757,4.813,0l16.781,8.391
				c2.38,1.19,3.536,3.946,2.711,6.478l-6.021,18.51C192.058,239.962,189.988,241.462,187.661,241.462z M170.039,230.702h13.713
				l3.384-10.39l-10.235-5.115l-10.256,5.128L170.039,230.702z"/>
		</g>
		<g>
			<path fill="#161616" d="M187.661,279.123h-21.52c-2.974,0-5.38-2.409-5.38-5.38v-37.661c0-2.971,2.406-5.38,5.38-5.38h21.52
				c2.974,0,5.38,2.409,5.38,5.38v37.661C193.041,276.714,190.635,279.123,187.661,279.123z M171.52,268.362h10.76v-26.901h-10.76
				V268.362z"/>
		</g>
		<g>
			<path fill="#161616" d="M279.123,279.123H123.1c-2.974,0-5.38-2.409-5.38-5.38c0-2.971,2.406-5.38,5.38-5.38h150.459
				c-3.173-46.445-46.976-86.082-96.658-86.082c-48.626,0-88.509,38.144-91.304,86.082h15.983c2.974,0,5.38,2.409,5.38,5.38
				c0,2.971-2.406,5.38-5.38,5.38h-21.52c-2.974,0-5.38-2.409-5.38-5.38c0-56.365,45.857-102.222,102.222-102.222
				c58.325,0,107.602,46.813,107.602,102.222C284.503,276.714,282.096,279.123,279.123,279.123z"/>
		</g>
		<g>
			<path fill="#161616" d="M179.591,176.901c-28.183,0-51.111-22.929-51.111-51.111s22.928-51.111,51.111-51.111
				c9.347,0,18.547,2.598,26.59,7.513c2.533,1.55,3.336,4.863,1.786,7.398c-1.55,2.538-4.86,3.328-7.398,1.786
				c-6.357-3.885-13.608-5.937-20.979-5.937c-22.251,0-40.351,18.1-40.351,40.351s18.1,40.351,40.351,40.351
				c22.251,0,40.351-18.1,40.351-40.351c0-7.374-2.054-14.627-5.937-20.979c-1.55-2.535-0.751-5.845,1.786-7.395
				c2.538-1.553,5.853-0.754,7.398,1.784c4.913,8.041,7.513,17.236,7.513,26.591C230.702,153.972,207.773,176.901,179.591,176.901z"
				/>
		</g>
	</g>
</g>
</svg>
